<svg id="Layer_1" data-name="Layer 1" xmlns="http://www.w3.org/2000/svg" viewBox="0 0 480.27 167.77"><defs><style>.cls-1{fill:#0075bc;}.cls-2{fill:#00a2dd;}.cls-3{fill:#fff;}</style></defs><title>Stonehenge with text</title><rect class="cls-1" x="31.15" y="24.75" width="47.57" height="44.4"/><path class="cls-2" d="M37.5,31.09H72.38V62.81H37.5Z"/><rect class="cls-1" x="53.35" y="37.43" width="3.17" height="19.03"/><rect class="cls-1" x="62.87" y="37.43" width="3.17" height="19.03"/><rect class="cls-1" x="43.84" y="37.43" width="3.17" height="19.03"/><rect class="cls-1" x="72.38" y="24.75" width="47.57" height="44.4"/><path class="cls-2" d="M78.73,31.09h34.88V62.81H78.73Z"/><rect class="cls-1" x="94.58" y="37.43" width="3.17" height="19.03"/><rect class="cls-1" x="104.1" y="37.43" width="3.17" height="19.03"/><rect class="cls-1" x="85.07" y="37.43" width="3.17" height="19.03"/><rect class="cls-1" x="24.11" y="62.81" width="47.57" height="44.4"/><path class="cls-2" d="M30.45,69.15H65.34v31.71H30.45Z"/><rect class="cls-1" x="46.31" y="75.49" width="3.17" height="19.03"/><rect class="cls-1" x="55.82" y="75.49" width="3.17" height="19.03"/><rect class="cls-1" x="36.79" y="75.49" width="3.17" height="19.03"/><rect class="cls-1" x="24.11" y="100.86" width="47.57" height="44.4"/><path class="cls-2" d="M30.45,107.21H65.34v31.72H30.45Z"/><rect class="cls-1" x="46.31" y="113.55" width="3.17" height="19.03"/><rect class="cls-1" x="55.82" y="113.55" width="3.17" height="19.03"/><rect class="cls-1" x="36.79" y="113.55" width="3.17" height="19.03"/><rect class="cls-1" x="79.42" y="62.81" width="47.57" height="44.4"/><path class="cls-2" d="M85.76,69.15h34.92v31.71H85.76Z"/><rect class="cls-1" x="101.62" y="75.49" width="3.17" height="19.03"/><rect class="cls-1" x="111.13" y="75.49" width="3.17" height="19.03"/><rect class="cls-1" x="92.1" y="75.49" width="3.17" height="19.03"/><rect class="cls-1" x="79.42" y="100.86" width="47.57" height="44.4"/><path class="cls-2" d="M85.76,107.21h34.92v31.72H85.76Z"/><rect class="cls-1" x="101.62" y="113.55" width="3.17" height="19.03"/><rect class="cls-1" x="111.13" y="113.55" width="3.17" height="19.03"/><rect class="cls-1" x="92.1" y="113.55" width="3.17" height="19.03"/><path class="cls-3" d="M180.92,77h-3.19v5.65H149V71.38h19.17V60.08h-16V54.43H149V31.82h3.19V26.17h28.75v11.3H161.76V48.78h16v5.65h3.19Z"/><path class="cls-1" d="M179.15,84.1H147.56V70h19.17V61.5h-16V55.85h-3.2V30.4h3.2V24.75h31.58V38.89H163.17v8.47h16V53h3.19V78.45h-3.19ZM150.4,81.27h25.91V75.62h3.2V55.85h-3.2V50.19h-16V36.06h19.17V27.59H153.59v5.65H150.4V53h3.19v5.65h16V72.8H150.4Z"/><path class="cls-3" d="M211.24,48.78h-7.19V82.69h-9.58V48.78h-7.19V40.3h24Z"/><path class="cls-1" d="M205.47,84.1H193.05V50.19h-7.19V38.88h26.8V50.19h-7.19Zm-9.58-2.83h6.74V47.36h7.19V41.72H188.7v5.64h7.19Z"/><path class="cls-3" d="M240,78.45h-2.4v4.24H218.43V78.45H216V44.54h2.4V40.3h19.16v4.24H240Zm-9.59-4.24V48.78h-4.79V74.21Z"/><path class="cls-1" d="M239,84.1H217V79.87h-2.4V43.12H217V38.88h22v4.24h2.4V79.87H239Zm-19.17-2.83h16.33V77h2.4V46h-2.4V41.72H219.84V46h-2.39V77h2.39Zm12-5.64H224.2V47.36h7.62ZM227,72.79h2V50.19h-2Z"/><path class="cls-3" d="M268.74,82.69h-9.59V48.78h-4.79V82.69h-9.58V40.3h21.56v4.24h2.4Z"/><path class="cls-1" d="M270.16,84.1H257.74V50.19h-2V84.1H243.36V38.88h24.4v4.24h2.4Zm-9.59-2.83h6.75V46h-2.4V41.72H246.2V81.27H253V47.36h7.62Z"/><path class="cls-3" d="M297.49,82.69H275.93V78.45h-2.4V44.54h2.4V40.3h21.56v8.48H283.11v8.47h7.19v8.48h-7.19v8.48h14.38Z"/><path class="cls-1" d="M298.9,84.1H274.51V79.87h-2.4V43.12h2.4V38.88H298.9V50.19H284.53v5.65h7.19V67.15h-7.19v5.64H298.9Zm-21.56-2.83h18.73V75.63H281.7V64.31h7.18V58.67H281.7V47.36h14.37V41.72H277.34V46H275V77h2.39Z"/><path class="cls-3" d="M334.26,82.69H321.48V60.08h-6.39V82.69H302.31V26.17h12.78V48.78h6.39V26.17h12.78Z"/><path class="cls-1" d="M335.67,84.1H320.06V61.5h-3.55V84.1H300.9V24.75h15.61V47.36h3.55V24.75h15.61ZM322.9,81.27h9.94V27.59H322.9v22.6h-9.23V27.59h-9.94V81.27h9.94V58.66h9.23Z"/><path class="cls-3" d="M364.57,82.69H343V78.45h-2.4V44.54H343V40.3h21.56v8.48H350.2v8.47h7.18v8.48H350.2v8.48h14.37Z"/><path class="cls-1" d="M366,84.1h-24.4V79.87H339.2V43.12h2.39V38.88H366V50.19H351.61v5.65h7.19V67.15h-7.19v5.64H366Zm-21.56-2.83h18.72V75.63H348.78V64.31H356V58.67h-7.19V47.36h14.37V41.72H344.43V46H342V77h2.4Z"/><path class="cls-3" d="M393.32,82.69h-9.58V48.78H379V82.69h-9.59V40.3h21.57v4.24h2.39Z"/><path class="cls-1" d="M394.74,84.1H382.32V50.19h-2V84.1H368V38.88h24.39v4.24h2.4Zm-9.59-2.83h6.75V46h-2.39V41.72H370.78V81.27h6.75V47.36h7.62Z"/><path class="cls-3" d="M422.07,82.69H400.51V78.45h-2.4V44.54h2.4V40.3h21.56v8.48H407.7V74.21h4.79V65.73h-2.4V57.25h12Z"/><path class="cls-1" d="M423.49,84.1h-24.4V79.87H396.7V43.12h2.39V38.88h24.4V50.19H409.11v5.65h14.38Zm-21.56-2.83h18.72V58.67h-9.14v5.64h2.39V75.63h-7.62V47.36h14.37V41.72H401.93V46h-2.4V77h2.4Zm7.18-8.48h2V67.15h-2Z"/><path class="cls-3" d="M450.82,82.69H429.26V78.45h-2.4V44.54h2.4V40.3h21.56v8.48H436.45v8.47h7.18v8.48h-7.18v8.48h14.37Z"/><path class="cls-1" d="M452.24,84.1h-24.4V79.87h-2.39V43.12h2.39V38.88h24.4V50.19H437.86v5.65h7.19V67.15h-7.19v5.64h14.38Zm-21.56-2.83H449.4V75.63H435V64.31h7.19V58.67H435V47.36H449.4V41.72H430.68V46h-2.4V77h2.4Z"/><rect class="cls-1" x="147.56" y="100.86" width="47.57" height="44.4"/><path class="cls-2" d="M153.9,107.2h34.92v31.71H153.9Z"/><rect class="cls-1" x="169.76" y="113.54" width="3.17" height="19.03"/><rect class="cls-1" x="179.27" y="113.54" width="3.17" height="19.03"/><rect class="cls-1" x="160.24" y="113.54" width="3.17" height="19.03"/><rect class="cls-1" x="189.56" y="100.86" width="47.57" height="44.4"/><path class="cls-2" d="M195.9,107.2h34.92v31.71H195.9Z"/><rect class="cls-1" x="211.76" y="113.54" width="3.17" height="19.03"/><rect class="cls-1" x="221.27" y="113.54" width="3.17" height="19.03"/><rect class="cls-1" x="202.24" y="113.54" width="3.17" height="19.03"/><rect class="cls-1" x="246.1" y="100.86" width="47.57" height="44.4"/><path class="cls-2" d="M252.44,107.2h34.92v31.71H252.44Z"/><rect class="cls-1" x="268.3" y="113.54" width="3.17" height="19.03"/><rect class="cls-1" x="277.81" y="113.54" width="3.17" height="19.03"/><rect class="cls-1" x="258.78" y="113.54" width="3.17" height="19.03"/><rect class="cls-1" x="288.1" y="100.86" width="47.57" height="44.4"/><path class="cls-2" d="M294.44,107.2h34.92v31.71H294.44Z"/><rect class="cls-1" x="310.3" y="113.54" width="3.17" height="19.03"/><rect class="cls-1" x="319.81" y="113.54" width="3.17" height="19.03"/><rect class="cls-1" x="300.78" y="113.54" width="3.17" height="19.03"/><rect class="cls-1" x="404.67" y="100.86" width="47.57" height="44.4"/><path class="cls-2" d="M411,107.2h34.92v31.71H411Z"/><rect class="cls-1" x="426.87" y="113.54" width="3.17" height="19.03"/><rect class="cls-1" x="436.38" y="113.54" width="3.17" height="19.03"/><rect class="cls-1" x="417.35" y="113.54" width="3.17" height="19.03"/><path class="cls-2" d="M347.65,112.36l-6.47,31.05,8.9,1.85h26.38l5.38-25.76Zm4.13,26.78-3.1-.65,3.88-18.62,3.11.64Zm9.32,2-3.1-.65,3.88-18.63,3.11.65Zm6.21,1.29,3.88-18.63,3.11.65L370.41,143Z"/><rect class="cls-1" x="351.98" y="129.86" width="19.03" height="3.17" transform="translate(158.98 458.47) rotate(-78.21)"/><rect class="cls-1" x="361.29" y="131.81" width="19.03" height="3.17" transform="matrix(0.2, -0.98, 0.98, 0.2, 164.49, 469.13)"/><rect class="cls-1" x="342.66" y="127.92" width="19.03" height="3.17" transform="translate(153.46 447.8) rotate(-78.21)"/><path class="cls-1" d="M342.74,104.86l-8.43,40.4h48.6l6.4-30.68Zm35.05,34.05H342.11l5.54-26.55,34.19,7.14Z"/></svg>