<svg id="Layer_1" data-name="Layer 1" xmlns="http://www.w3.org/2000/svg" viewBox="0 0 324.8 181.03"><defs><style>.cls-1{fill:#0075bc;}.cls-2{fill:#00a2dd;}</style></defs><title>Stonehenge - narrow</title><rect class="cls-1" x="89.28" y="27.93" width="47.57" height="44.4"/><path class="cls-2" d="M95.63,34.27h34.88V66H95.63Z"/><rect class="cls-1" x="111.48" y="40.61" width="3.17" height="19.03"/><rect class="cls-1" x="121" y="40.61" width="3.17" height="19.03"/><rect class="cls-1" x="101.97" y="40.61" width="3.17" height="19.03"/><rect class="cls-1" x="130.51" y="27.93" width="47.57" height="44.4"/><path class="cls-2" d="M136.86,34.27h34.88V66H136.86Z"/><rect class="cls-1" x="152.71" y="40.61" width="3.17" height="19.03"/><rect class="cls-1" x="162.23" y="40.61" width="3.17" height="19.03"/><rect class="cls-1" x="143.2" y="40.61" width="3.17" height="19.03"/><rect class="cls-1" x="82.24" y="65.99" width="47.57" height="44.4"/><path class="cls-2" d="M88.58,72.33h34.89V104H88.58Z"/><rect class="cls-1" x="104.44" y="78.67" width="3.17" height="19.03"/><rect class="cls-1" x="113.95" y="78.67" width="3.17" height="19.03"/><rect class="cls-1" x="94.92" y="78.67" width="3.17" height="19.03"/><rect class="cls-1" x="82.24" y="104.04" width="47.57" height="44.4"/><path class="cls-2" d="M88.58,110.39h34.89v31.72H88.58Z"/><rect class="cls-1" x="104.44" y="116.73" width="3.17" height="19.03"/><rect class="cls-1" x="113.95" y="116.73" width="3.17" height="19.03"/><rect class="cls-1" x="94.92" y="116.73" width="3.17" height="19.03"/><rect class="cls-1" x="137.55" y="65.99" width="47.57" height="44.4"/><path class="cls-2" d="M143.89,72.33h34.92V104H143.89Z"/><rect class="cls-1" x="159.75" y="78.67" width="3.17" height="19.03"/><rect class="cls-1" x="169.26" y="78.67" width="3.17" height="19.03"/><rect class="cls-1" x="150.23" y="78.67" width="3.17" height="19.03"/><rect class="cls-1" x="137.55" y="104.04" width="47.57" height="44.4"/><path class="cls-2" d="M143.89,110.39h34.92v31.72H143.89Z"/><rect class="cls-1" x="159.75" y="116.73" width="3.17" height="19.03"/><rect class="cls-1" x="169.26" y="116.73" width="3.17" height="19.03"/><rect class="cls-1" x="150.23" y="116.73" width="3.17" height="19.03"/><rect class="cls-1" x="24.67" y="65.99" width="47.57" height="44.4"/><path class="cls-2" d="M31,72.33H65.93V104H31Z"/><rect class="cls-1" x="46.87" y="78.67" width="3.17" height="19.03"/><rect class="cls-1" x="56.38" y="78.67" width="3.17" height="19.03"/><rect class="cls-1" x="37.35" y="78.67" width="3.17" height="19.03"/><rect class="cls-1" x="24.67" y="104.04" width="47.57" height="44.4"/><path class="cls-2" d="M31,110.39H65.93v31.72H31Z"/><rect class="cls-1" x="46.87" y="116.73" width="3.17" height="19.03"/><rect class="cls-1" x="56.38" y="116.73" width="3.17" height="19.03"/><rect class="cls-1" x="37.35" y="116.73" width="3.17" height="19.03"/><rect class="cls-1" x="195.12" y="65.99" width="47.57" height="44.4"/><path class="cls-2" d="M201.46,72.33h34.92V104H201.46Z"/><rect class="cls-1" x="217.32" y="78.67" width="3.17" height="19.03"/><rect class="cls-1" x="226.83" y="78.67" width="3.17" height="19.03"/><rect class="cls-1" x="207.8" y="78.67" width="3.17" height="19.03"/><rect class="cls-1" x="195.12" y="104.04" width="47.57" height="44.4"/><path class="cls-2" d="M201.46,110.39h34.92v31.72H201.46Z"/><rect class="cls-1" x="217.32" y="116.73" width="3.17" height="19.03"/><rect class="cls-1" x="226.83" y="116.73" width="3.17" height="19.03"/><rect class="cls-1" x="207.8" y="116.73" width="3.17" height="19.03"/><rect class="cls-1" x="252.69" y="65.99" width="47.57" height="44.4"/><path class="cls-2" d="M259,72.33H294V104H259Z"/><rect class="cls-1" x="274.89" y="78.67" width="3.17" height="19.03"/><rect class="cls-1" x="284.4" y="78.67" width="3.17" height="19.03"/><rect class="cls-1" x="265.37" y="78.67" width="3.17" height="19.03"/><rect class="cls-1" x="252.69" y="104.04" width="47.57" height="44.4"/><path class="cls-2" d="M259,110.39H294v31.72H259Z"/><rect class="cls-1" x="274.89" y="116.73" width="3.17" height="19.03"/><rect class="cls-1" x="284.4" y="116.73" width="3.17" height="19.03"/><rect class="cls-1" x="265.37" y="116.73" width="3.17" height="19.03"/></svg>