<svg id="Layer_1" data-name="Layer 1" xmlns="http://www.w3.org/2000/svg" viewBox="0 0 890 181.03"><defs><style>.cls-1{fill:none;}.cls-2{fill:#00a2dd;}.cls-3{fill:#0075bc;}</style></defs><title>stonehenge_wide</title><polygon class="cls-1" points="377.25 142.09 381.31 122.67 377.25 142.09 377.25 142.09"/><polygon class="cls-2" points="341.58 142.09 348.07 142.09 348.15 141.67 352.03 123.04 355.14 123.69 351.3 142.09 357.79 142.09 361.35 124.99 364.46 125.64 361.02 142.09 367.5 142.09 369.28 133.54 370.66 126.93 373.77 127.58 370.74 142.09 377.25 142.09 381.31 122.67 347.12 115.54 341.58 142.09"/><path class="cls-3" d="M342.21,108,335.14,142V104H245.57v44.4H382.38l6.4-30.68Zm35.05,34.05h-6.52l3-14.51-3.11-.65-1.38,6.61-1.78,8.55H361l3.44-16.46-3.11-.64-3.57,17.1H351.3l3.84-18.4L352,123l-3.88,18.63-.08.42h-6.49l5.54-26.55,34.19,7.13Z"/><polygon class="cls-3" points="779.03 27.93 737.8 27.93 731.46 27.93 696.57 27.93 690.23 27.93 654.83 27.93 649 27.93 613.6 27.93 607.26 27.93 572.37 27.93 566.03 27.93 524.8 27.93 524.8 72.33 538.38 72.33 538.38 104.04 538.38 110.39 538.38 148.44 585.95 148.44 585.95 110.39 585.95 104.04 585.95 72.33 593.69 72.33 593.69 104.04 593.69 110.39 593.69 148.44 641.26 148.44 641.26 110.39 641.26 104.04 641.26 72.33 649 72.33 654.83 72.33 662.58 72.33 662.58 104.04 662.58 110.39 662.58 148.44 710.15 148.44 710.15 110.39 710.15 104.04 710.15 72.33 717.89 72.33 717.89 104.04 717.89 110.39 717.89 148.44 765.46 148.44 765.46 110.39 765.46 104.04 765.46 72.33 779.03 72.33 779.03 27.93"/><path class="cls-2" d="M531.15,34.27H566V66H531.15Z"/><polygon class="cls-3" points="469.92 65.99 469.92 104.04 469.92 110.39 469.92 148.44 517.49 148.44 517.49 110.39 517.49 104.04 517.49 65.99 469.92 65.99"/><polygon class="cls-3" points="789.03 65.99 789.03 104.04 789.03 110.39 789.03 148.44 836.6 148.44 836.6 110.39 836.6 104.04 836.6 65.99 789.03 65.99"/><polygon class="cls-3" points="194.6 104.04 189.03 104.04 147.03 104.04 147.03 148.44 189.03 148.44 194.6 148.44 236.6 148.44 236.6 104.04 194.6 104.04"/><polygon class="cls-3" points="119.42 65.99 119.42 27.93 78.19 27.93 71.85 27.93 30.62 27.93 30.62 65.99 23.58 65.99 23.58 104.04 23.58 110.39 23.58 148.44 71.15 148.44 71.15 110.39 71.15 104.04 71.15 72.33 71.85 72.33 78.19 72.33 78.89 72.33 78.89 104.04 78.89 110.39 78.89 148.44 126.46 148.44 126.46 110.39 126.46 104.04 126.46 65.99 119.42 65.99"/><rect class="cls-3" x="547" y="40.61" width="3.17" height="19.03"/><rect class="cls-3" x="537.49" y="40.61" width="3.17" height="19.03"/><path class="cls-2" d="M476.26,72.33h34.92V104H476.26Z"/><rect class="cls-3" x="492.12" y="78.67" width="3.17" height="19.03"/><rect class="cls-3" x="501.63" y="78.67" width="3.17" height="19.03"/><rect class="cls-3" x="482.6" y="78.67" width="3.17" height="19.03"/><path class="cls-2" d="M476.26,110.39h34.92v31.72H476.26Z"/><rect class="cls-3" x="492.12" y="116.73" width="3.17" height="19.03"/><rect class="cls-3" x="501.63" y="116.73" width="3.17" height="19.03"/><rect class="cls-3" x="482.6" y="116.73" width="3.17" height="19.03"/><rect class="cls-3" x="556.52" y="40.61" width="3.17" height="19.03"/><path class="cls-2" d="M572.38,34.27h34.88V66H572.38Z"/><rect class="cls-3" x="588.23" y="40.61" width="3.17" height="19.03"/><rect class="cls-3" x="597.75" y="40.61" width="3.17" height="19.03"/><rect class="cls-3" x="578.72" y="40.61" width="3.17" height="19.03"/><path class="cls-2" d="M613.6,34.27h34.89V66H613.6Z"/><rect class="cls-3" x="629.46" y="40.61" width="3.17" height="19.03"/><rect class="cls-3" x="638.98" y="40.61" width="3.17" height="19.03"/><rect class="cls-3" x="619.95" y="40.61" width="3.17" height="19.03"/><path class="cls-2" d="M544.72,72.33h34.89V104H544.72Z"/><rect class="cls-3" x="560.58" y="78.67" width="3.17" height="19.03"/><rect class="cls-3" x="570.09" y="78.67" width="3.17" height="19.03"/><rect class="cls-3" x="551.06" y="78.67" width="3.17" height="19.03"/><path class="cls-2" d="M600,72.33H635V104H600Z"/><rect class="cls-3" x="615.89" y="78.67" width="3.17" height="19.03"/><rect class="cls-3" x="625.4" y="78.67" width="3.17" height="19.03"/><rect class="cls-3" x="606.37" y="78.67" width="3.17" height="19.03"/><path class="cls-2" d="M544.72,110.39h34.89v31.72H544.72Z"/><rect class="cls-3" x="560.58" y="116.73" width="3.17" height="19.03"/><rect class="cls-3" x="570.09" y="116.73" width="3.17" height="19.03"/><rect class="cls-3" x="551.06" y="116.73" width="3.17" height="19.03"/><path class="cls-2" d="M600,110.39H635v31.72H600Z"/><rect class="cls-3" x="615.89" y="116.73" width="3.17" height="19.03"/><rect class="cls-3" x="625.4" y="116.73" width="3.17" height="19.03"/><rect class="cls-3" x="606.37" y="116.73" width="3.17" height="19.03"/><path class="cls-2" d="M655.35,34.27h34.88V66H655.35Z"/><rect class="cls-3" x="671.2" y="40.61" width="3.17" height="19.03"/><rect class="cls-3" x="680.72" y="40.61" width="3.17" height="19.03"/><rect class="cls-3" x="661.69" y="40.61" width="3.17" height="19.03"/><path class="cls-2" d="M696.58,34.27h34.88V66H696.58Z"/><rect class="cls-3" x="712.43" y="40.61" width="3.17" height="19.03"/><rect class="cls-3" x="721.95" y="40.61" width="3.17" height="19.03"/><rect class="cls-3" x="702.92" y="40.61" width="3.17" height="19.03"/><path class="cls-2" d="M737.8,34.27h34.89V66H737.8Z"/><rect class="cls-3" x="753.66" y="40.61" width="3.17" height="19.03"/><rect class="cls-3" x="763.18" y="40.61" width="3.17" height="19.03"/><rect class="cls-3" x="744.15" y="40.61" width="3.17" height="19.03"/><path class="cls-2" d="M668.92,72.33h34.89V104H668.92Z"/><rect class="cls-3" x="684.78" y="78.67" width="3.17" height="19.03"/><rect class="cls-3" x="694.29" y="78.67" width="3.17" height="19.03"/><rect class="cls-3" x="675.26" y="78.67" width="3.17" height="19.03"/><path class="cls-2" d="M724.23,72.33h34.92V104H724.23Z"/><rect class="cls-3" x="740.09" y="78.67" width="3.17" height="19.03"/><rect class="cls-3" x="749.6" y="78.67" width="3.17" height="19.03"/><rect class="cls-3" x="730.57" y="78.67" width="3.17" height="19.03"/><path class="cls-2" d="M668.92,110.39h34.89v31.72H668.92Z"/><rect class="cls-3" x="684.78" y="116.73" width="3.17" height="19.03"/><rect class="cls-3" x="694.29" y="116.73" width="3.17" height="19.03"/><rect class="cls-3" x="675.26" y="116.73" width="3.17" height="19.03"/><path class="cls-2" d="M724.23,110.39h34.92v31.72H724.23Z"/><rect class="cls-3" x="740.09" y="116.73" width="3.17" height="19.03"/><rect class="cls-3" x="749.6" y="116.73" width="3.17" height="19.03"/><rect class="cls-3" x="730.57" y="116.73" width="3.17" height="19.03"/><path class="cls-2" d="M795.37,72.33h34.92V104H795.37Z"/><rect class="cls-3" x="811.23" y="78.67" width="3.17" height="19.03"/><rect class="cls-3" x="820.74" y="78.67" width="3.17" height="19.03"/><rect class="cls-3" x="801.71" y="78.67" width="3.17" height="19.03"/><path class="cls-2" d="M795.37,110.39h34.92v31.72H795.37Z"/><rect class="cls-3" x="811.23" y="116.73" width="3.17" height="19.03"/><rect class="cls-3" x="820.74" y="116.73" width="3.17" height="19.03"/><rect class="cls-3" x="801.71" y="116.73" width="3.17" height="19.03"/><path class="cls-2" d="M37,34.27H71.85V66H37Z"/><rect class="cls-3" x="52.82" y="40.61" width="3.17" height="19.03"/><rect class="cls-3" x="62.34" y="40.61" width="3.17" height="19.03"/><rect class="cls-3" x="43.31" y="40.61" width="3.17" height="19.03"/><path class="cls-2" d="M78.2,34.27h34.88V66H78.2Z"/><rect class="cls-3" x="94.05" y="40.61" width="3.17" height="19.03"/><rect class="cls-3" x="103.57" y="40.61" width="3.17" height="19.03"/><rect class="cls-3" x="84.54" y="40.61" width="3.17" height="19.03"/><path class="cls-2" d="M29.92,72.33H64.81V104H29.92Z"/><rect class="cls-3" x="45.78" y="78.67" width="3.17" height="19.03"/><rect class="cls-3" x="55.29" y="78.67" width="3.17" height="19.03"/><rect class="cls-3" x="36.26" y="78.67" width="3.17" height="19.03"/><path class="cls-2" d="M29.92,110.39H64.81v31.72H29.92Z"/><rect class="cls-3" x="45.78" y="116.73" width="3.17" height="19.03"/><rect class="cls-3" x="55.29" y="116.73" width="3.17" height="19.03"/><rect class="cls-3" x="36.26" y="116.73" width="3.17" height="19.03"/><path class="cls-2" d="M85.23,72.33h34.92V104H85.23Z"/><rect class="cls-3" x="101.09" y="78.67" width="3.17" height="19.03"/><rect class="cls-3" x="110.6" y="78.67" width="3.17" height="19.03"/><rect class="cls-3" x="91.57" y="78.67" width="3.17" height="19.03"/><path class="cls-2" d="M85.23,110.39h34.92v31.72H85.23Z"/><rect class="cls-3" x="101.09" y="116.73" width="3.17" height="19.03"/><rect class="cls-3" x="110.6" y="116.73" width="3.17" height="19.03"/><rect class="cls-3" x="91.57" y="116.73" width="3.17" height="19.03"/><path class="cls-3" d="M178.62,87.28H147V73.15H166.2V64.68h-16V59H147V33.58h3.2V27.93h31.58V42.07H162.64v8.47h16v5.65h3.19V81.63h-3.19Zm-28.75-2.83h25.91V78.8H179V59h-3.2V53.37h-16V39.23H179V30.76H153.06v5.66h-3.19V56.19h3.19v5.65h16V76H149.87Z"/><path class="cls-3" d="M204.94,87.28H192.52V53.37h-7.19V42.06h26.8V53.37h-7.19Zm-9.59-2.83h6.75V50.54h7.19V44.89H188.17v5.65h7.18Z"/><path class="cls-3" d="M238.48,87.28h-22V83h-2.4V46.3h2.4V42.06h22V46.3h2.39V83h-2.39Zm-19.17-2.83h16.33V80.21H238V49.13h-2.4V44.89H219.31v4.24h-2.39V80.21h2.39Zm12-5.64h-7.63V50.54h7.63ZM226.5,76h2V53.37h-2Z"/><path class="cls-3" d="M269.62,87.28H257.21V53.37h-2V87.28H242.83V42.06h24.4V46.3h2.39ZM260,84.45h6.75V49.13h-2.4V44.89H245.67V84.45h6.74V50.54H260Z"/><path class="cls-3" d="M298.37,87.28H274V83h-2.4V46.3H274V42.06h24.39V53.37H284V59h7.19V70.33H284V76h14.37Zm-21.56-2.83h18.73V78.81H281.16V67.49h7.19V61.85h-7.19V50.54h14.38V44.89H276.81v4.24h-2.39V80.21h2.39Z"/><path class="cls-3" d="M335.14,87.28H319.53V64.68H316v22.6H300.36V27.93H316V50.54h3.55V27.93h15.61Zm-12.78-2.83h9.95V30.76h-9.95V53.37h-9.22V30.76H303.2V84.45h9.94V61.84h9.22Z"/><path class="cls-3" d="M365.46,87.28h-24.4V83h-2.4V46.3h2.4V42.06h24.4V53.37H351.08V59h7.19V70.33h-7.19V76h14.38Zm-21.57-2.83h18.73V78.81H348.25V67.49h7.19V61.85h-7.19V50.54h14.37V44.89H343.89v4.24H341.5V80.21h2.39Z"/><path class="cls-3" d="M394.21,87.28H381.79V53.37h-2V87.28H367.41V42.06h24.4V46.3h2.4Zm-9.59-2.83h6.75V49.13H389V44.89H370.25V84.45H377V50.54h7.62Z"/><path class="cls-3" d="M423,87.28h-24.4V83h-2.4V46.3h2.4V42.06H423V53.37H408.58V59H423Zm-21.57-2.83h18.73V61.85H411v5.64h2.39V78.81h-7.62V50.54h14.37V44.89H401.39v4.24H399V80.21h2.39ZM408.58,76h2V70.33h-2Z"/><path class="cls-3" d="M451.71,87.28h-24.4V83h-2.4V46.3h2.4V42.06h24.4V53.37H437.33V59h7.19V70.33h-7.19V76h14.38Zm-21.57-2.83h18.73V78.81H434.5V67.49h7.19V61.85H434.5V50.54h14.37V44.89H430.14v4.24h-2.39V80.21h2.39Z"/><path class="cls-2" d="M153.37,110.38h34.92v31.71H153.37Z"/><rect class="cls-3" x="169.23" y="116.72" width="3.17" height="19.03"/><rect class="cls-3" x="178.74" y="116.72" width="3.17" height="19.03"/><rect class="cls-3" x="159.71" y="116.72" width="3.17" height="19.03"/><path class="cls-2" d="M195.37,110.38h34.92v31.71H195.37Z"/><rect class="cls-3" x="211.23" y="116.72" width="3.17" height="19.03"/><rect class="cls-3" x="220.74" y="116.72" width="3.17" height="19.03"/><rect class="cls-3" x="201.71" y="116.72" width="3.17" height="19.03"/><path class="cls-2" d="M251.91,110.38h34.92v31.71H251.91Z"/><rect class="cls-3" x="267.77" y="116.72" width="3.17" height="19.03"/><rect class="cls-3" x="277.28" y="116.72" width="3.17" height="19.03"/><rect class="cls-3" x="258.25" y="116.72" width="3.17" height="19.03"/><path class="cls-2" d="M293.91,110.38h34.92v31.71H293.91Z"/><rect class="cls-3" x="309.77" y="116.72" width="3.17" height="19.03"/><rect class="cls-3" x="319.28" y="116.72" width="3.17" height="19.03"/><rect class="cls-3" x="300.25" y="116.72" width="3.17" height="19.03"/><rect class="cls-3" x="404.14" y="104.04" width="47.57" height="44.4"/><path class="cls-2" d="M410.48,110.38H445.4v31.71H410.48Z"/><rect class="cls-3" x="426.34" y="116.72" width="3.17" height="19.03"/><rect class="cls-3" x="435.85" y="116.72" width="3.17" height="19.03"/><rect class="cls-3" x="416.82" y="116.72" width="3.17" height="19.03"/></svg>