<svg id="Layer_1" data-name="Layer 1" xmlns="http://www.w3.org/2000/svg" viewBox="0 0 890 181.03"><defs><style>.cls-1{fill:#0075bc;}.cls-2{fill:#00a2dd;}.cls-3{fill:#fff;}</style></defs><title>Stonehenge - wide</title><rect class="cls-1" x="524.8" y="27.93" width="47.57" height="44.4"/><path class="cls-2" d="M531.15,34.27H566V66H531.15Z"/><rect class="cls-1" x="547" y="40.61" width="3.17" height="19.03"/><rect class="cls-1" x="556.52" y="40.61" width="3.17" height="19.03"/><rect class="cls-1" x="537.49" y="40.61" width="3.17" height="19.03"/><rect class="cls-1" x="566.03" y="27.93" width="47.57" height="44.4"/><path class="cls-2" d="M572.38,34.27h34.88V66H572.38Z"/><rect class="cls-1" x="588.23" y="40.61" width="3.17" height="19.03"/><rect class="cls-1" x="597.75" y="40.61" width="3.17" height="19.03"/><rect class="cls-1" x="578.72" y="40.61" width="3.17" height="19.03"/><rect class="cls-1" x="607.26" y="27.93" width="47.57" height="44.4"/><path class="cls-2" d="M613.6,34.27h34.89V66H613.6Z"/><rect class="cls-1" x="629.46" y="40.61" width="3.17" height="19.03"/><rect class="cls-1" x="638.98" y="40.61" width="3.17" height="19.03"/><rect class="cls-1" x="619.95" y="40.61" width="3.17" height="19.03"/><rect class="cls-1" x="538.38" y="65.99" width="47.57" height="44.4"/><path class="cls-2" d="M544.72,72.33h34.89V104H544.72Z"/><rect class="cls-1" x="560.58" y="78.67" width="3.17" height="19.03"/><rect class="cls-1" x="570.09" y="78.67" width="3.17" height="19.03"/><rect class="cls-1" x="551.06" y="78.67" width="3.17" height="19.03"/><rect class="cls-1" x="593.69" y="65.99" width="47.57" height="44.4"/><path class="cls-2" d="M600,72.33H635V104H600Z"/><rect class="cls-1" x="615.89" y="78.67" width="3.17" height="19.03"/><rect class="cls-1" x="625.4" y="78.67" width="3.17" height="19.03"/><rect class="cls-1" x="606.37" y="78.67" width="3.17" height="19.03"/><rect class="cls-1" x="538.38" y="104.04" width="47.57" height="44.4"/><path class="cls-2" d="M544.72,110.39h34.89v31.72H544.72Z"/><rect class="cls-1" x="560.58" y="116.73" width="3.17" height="19.03"/><rect class="cls-1" x="570.09" y="116.73" width="3.17" height="19.03"/><rect class="cls-1" x="551.06" y="116.73" width="3.17" height="19.03"/><rect class="cls-1" x="593.69" y="104.04" width="47.57" height="44.4"/><path class="cls-2" d="M600,110.39H635v31.72H600Z"/><rect class="cls-1" x="615.89" y="116.73" width="3.17" height="19.03"/><rect class="cls-1" x="625.4" y="116.73" width="3.17" height="19.03"/><rect class="cls-1" x="606.37" y="116.73" width="3.17" height="19.03"/><rect class="cls-1" x="649" y="27.93" width="47.57" height="44.4"/><path class="cls-2" d="M655.35,34.27h34.88V66H655.35Z"/><rect class="cls-1" x="671.2" y="40.61" width="3.17" height="19.03"/><rect class="cls-1" x="680.72" y="40.61" width="3.17" height="19.03"/><rect class="cls-1" x="661.69" y="40.61" width="3.17" height="19.03"/><rect class="cls-1" x="690.23" y="27.93" width="47.57" height="44.4"/><path class="cls-2" d="M696.58,34.27h34.88V66H696.58Z"/><rect class="cls-1" x="712.43" y="40.61" width="3.17" height="19.03"/><rect class="cls-1" x="721.95" y="40.61" width="3.17" height="19.03"/><rect class="cls-1" x="702.92" y="40.61" width="3.17" height="19.03"/><rect class="cls-1" x="731.46" y="27.93" width="47.57" height="44.4"/><path class="cls-2" d="M737.8,34.27h34.89V66H737.8Z"/><rect class="cls-1" x="753.66" y="40.61" width="3.17" height="19.03"/><rect class="cls-1" x="763.18" y="40.61" width="3.17" height="19.03"/><rect class="cls-1" x="744.15" y="40.61" width="3.17" height="19.03"/><rect class="cls-1" x="662.58" y="65.99" width="47.57" height="44.4"/><path class="cls-2" d="M668.92,72.33h34.89V104H668.92Z"/><rect class="cls-1" x="684.78" y="78.67" width="3.17" height="19.03"/><rect class="cls-1" x="694.29" y="78.67" width="3.17" height="19.03"/><rect class="cls-1" x="675.26" y="78.67" width="3.17" height="19.03"/><rect class="cls-1" x="717.89" y="65.99" width="47.57" height="44.4"/><path class="cls-2" d="M724.23,72.33h34.92V104H724.23Z"/><rect class="cls-1" x="740.09" y="78.67" width="3.17" height="19.03"/><rect class="cls-1" x="749.6" y="78.67" width="3.17" height="19.03"/><rect class="cls-1" x="730.57" y="78.67" width="3.17" height="19.03"/><rect class="cls-1" x="662.58" y="104.04" width="47.57" height="44.4"/><path class="cls-2" d="M668.92,110.39h34.89v31.72H668.92Z"/><rect class="cls-1" x="684.78" y="116.73" width="3.17" height="19.03"/><rect class="cls-1" x="694.29" y="116.73" width="3.17" height="19.03"/><rect class="cls-1" x="675.26" y="116.73" width="3.17" height="19.03"/><rect class="cls-1" x="717.89" y="104.04" width="47.57" height="44.4"/><path class="cls-2" d="M724.23,110.39h34.92v31.72H724.23Z"/><rect class="cls-1" x="740.09" y="116.73" width="3.17" height="19.03"/><rect class="cls-1" x="749.6" y="116.73" width="3.17" height="19.03"/><rect class="cls-1" x="730.57" y="116.73" width="3.17" height="19.03"/><rect class="cls-1" x="469.92" y="65.99" width="47.57" height="44.4"/><path class="cls-2" d="M476.26,72.33h34.92V104H476.26Z"/><rect class="cls-1" x="492.12" y="78.67" width="3.17" height="19.03"/><rect class="cls-1" x="501.63" y="78.67" width="3.17" height="19.03"/><rect class="cls-1" x="482.6" y="78.67" width="3.17" height="19.03"/><rect class="cls-1" x="469.92" y="104.04" width="47.57" height="44.4"/><path class="cls-2" d="M476.26,110.39h34.92v31.72H476.26Z"/><rect class="cls-1" x="492.12" y="116.73" width="3.17" height="19.03"/><rect class="cls-1" x="501.63" y="116.73" width="3.17" height="19.03"/><rect class="cls-1" x="482.6" y="116.73" width="3.17" height="19.03"/><rect class="cls-1" x="789.03" y="65.99" width="47.57" height="44.4"/><path class="cls-2" d="M795.37,72.33h34.92V104H795.37Z"/><rect class="cls-1" x="811.23" y="78.67" width="3.17" height="19.03"/><rect class="cls-1" x="820.74" y="78.67" width="3.17" height="19.03"/><rect class="cls-1" x="801.71" y="78.67" width="3.17" height="19.03"/><rect class="cls-1" x="789.03" y="104.04" width="47.57" height="44.4"/><path class="cls-2" d="M795.37,110.39h34.92v31.72H795.37Z"/><rect class="cls-1" x="811.23" y="116.73" width="3.17" height="19.03"/><rect class="cls-1" x="820.74" y="116.73" width="3.17" height="19.03"/><rect class="cls-1" x="801.71" y="116.73" width="3.17" height="19.03"/><rect class="cls-1" x="30.62" y="27.93" width="47.57" height="44.4"/><path class="cls-2" d="M37,34.27H71.85V66H37Z"/><rect class="cls-1" x="52.82" y="40.61" width="3.17" height="19.03"/><rect class="cls-1" x="62.34" y="40.61" width="3.17" height="19.03"/><rect class="cls-1" x="43.31" y="40.61" width="3.17" height="19.03"/><rect class="cls-1" x="71.85" y="27.93" width="47.57" height="44.4"/><path class="cls-2" d="M78.2,34.27h34.88V66H78.2Z"/><rect class="cls-1" x="94.05" y="40.61" width="3.17" height="19.03"/><rect class="cls-1" x="103.57" y="40.61" width="3.17" height="19.03"/><rect class="cls-1" x="84.54" y="40.61" width="3.17" height="19.03"/><rect class="cls-1" x="23.58" y="65.99" width="47.57" height="44.4"/><path class="cls-2" d="M29.92,72.33H64.81V104H29.92Z"/><rect class="cls-1" x="45.78" y="78.67" width="3.17" height="19.03"/><rect class="cls-1" x="55.29" y="78.67" width="3.17" height="19.03"/><rect class="cls-1" x="36.26" y="78.67" width="3.17" height="19.03"/><rect class="cls-1" x="23.58" y="104.04" width="47.57" height="44.4"/><path class="cls-2" d="M29.92,110.39H64.81v31.72H29.92Z"/><rect class="cls-1" x="45.78" y="116.73" width="3.17" height="19.03"/><rect class="cls-1" x="55.29" y="116.73" width="3.17" height="19.03"/><rect class="cls-1" x="36.26" y="116.73" width="3.17" height="19.03"/><rect class="cls-1" x="78.89" y="65.99" width="47.57" height="44.4"/><path class="cls-2" d="M85.23,72.33h34.92V104H85.23Z"/><rect class="cls-1" x="101.09" y="78.67" width="3.17" height="19.03"/><rect class="cls-1" x="110.6" y="78.67" width="3.17" height="19.03"/><rect class="cls-1" x="91.57" y="78.67" width="3.17" height="19.03"/><rect class="cls-1" x="78.89" y="104.04" width="47.57" height="44.4"/><path class="cls-2" d="M85.23,110.39h34.92v31.72H85.23Z"/><rect class="cls-1" x="101.09" y="116.73" width="3.17" height="19.03"/><rect class="cls-1" x="110.6" y="116.73" width="3.17" height="19.03"/><rect class="cls-1" x="91.57" y="116.73" width="3.17" height="19.03"/><path class="cls-3" d="M180.39,80.21H177.2v5.66H148.45V74.56h19.16V63.26h-16V57.61h-3.19V35h3.19V29.35h28.75v11.3H161.23V52h16v5.66h3.19Z"/><path class="cls-1" d="M178.62,87.28H147V73.15H166.2V64.68h-16V59H147V33.58h3.2V27.93h31.58V42.07H162.64v8.47h16v5.65h3.19V81.63h-3.19Zm-28.75-2.83h25.91V78.8H179V59h-3.2V53.37h-16V39.23H179V30.76H153.06v5.66h-3.19V56.19h3.19v5.65h16V76H149.87Z"/><path class="cls-3" d="M210.71,52h-7.19V85.87h-9.58V52h-7.19V43.48h24Z"/><path class="cls-1" d="M204.94,87.28H192.52V53.37h-7.19V42.06h26.8V53.37h-7.19Zm-9.59-2.83h6.75V50.54h7.19V44.89H188.17v5.65h7.18Z"/><path class="cls-3" d="M239.46,81.63h-2.4v4.24H217.89V81.63H215.5V47.71h2.39V43.48h19.17v4.23h2.4Zm-9.59-4.24V52h-4.79V77.39Z"/><path class="cls-1" d="M238.48,87.28h-22V83h-2.4V46.3h2.4V42.06h22V46.3h2.39V83h-2.39Zm-19.17-2.83h16.33V80.21H238V49.13h-2.4V44.89H219.31v4.24h-2.39V80.21h2.39Zm12-5.64h-7.63V50.54h7.63ZM226.5,76h2V53.37h-2Z"/><path class="cls-3" d="M268.21,85.87h-9.59V52h-4.79V85.87h-9.58V43.48h21.56v4.23h2.4Z"/><path class="cls-1" d="M269.62,87.28H257.21V53.37h-2V87.28H242.83V42.06h24.4V46.3h2.39ZM260,84.45h6.75V49.13h-2.4V44.89H245.67V84.45h6.74V50.54H260Z"/><path class="cls-3" d="M297,85.87H275.39V81.63H273V47.71h2.39V43.48H297V52H282.58v8.48h7.19v8.48h-7.19v8.48H297Z"/><path class="cls-1" d="M298.37,87.28H274V83h-2.4V46.3H274V42.06h24.39V53.37H284V59h7.19V70.33H284V76h14.37Zm-21.56-2.83h18.73V78.81H281.16V67.49h7.19V61.85h-7.19V50.54h14.38V44.89H276.81v4.24h-2.39V80.21h2.39Z"/><path class="cls-3" d="M333.73,85.87H321V63.26h-6.39V85.87H301.78V29.35h12.78V52H321V29.35h12.78Z"/><path class="cls-1" d="M335.14,87.28H319.53V64.68H316v22.6H300.36V27.93H316V50.54h3.55V27.93h15.61Zm-12.78-2.83h9.95V30.76h-9.95V53.37h-9.22V30.76H303.2V84.45h9.94V61.84h9.22Z"/><path class="cls-3" d="M364,85.87H342.48V81.63h-2.4V47.71h2.4V43.48H364V52H349.66v8.48h7.19v8.48h-7.19v8.48H364Z"/><path class="cls-1" d="M365.46,87.28h-24.4V83h-2.4V46.3h2.4V42.06h24.4V53.37H351.08V59h7.19V70.33h-7.19V76h14.38Zm-21.57-2.83h18.73V78.81H348.25V67.49h7.19V61.85h-7.19V50.54h14.37V44.89H343.89v4.24H341.5V80.21h2.39Z"/><path class="cls-3" d="M392.79,85.87h-9.58V52h-4.8V85.87h-9.58V43.48h21.56v4.23h2.4Z"/><path class="cls-1" d="M394.21,87.28H381.79V53.37h-2V87.28H367.41V42.06h24.4V46.3h2.4Zm-9.59-2.83h6.75V49.13H389V44.89H370.25V84.45H377V50.54h7.62Z"/><path class="cls-3" d="M421.54,85.87H400V81.63h-2.4V47.71H400V43.48h21.56V52H407.16V77.39H412V68.91h-2.4V60.43h12Z"/><path class="cls-1" d="M423,87.28h-24.4V83h-2.4V46.3h2.4V42.06H423V53.37H408.58V59H423Zm-21.57-2.83h18.73V61.85H411v5.64h2.39V78.81h-7.62V50.54h14.37V44.89H401.39v4.24H399V80.21h2.39ZM408.58,76h2V70.33h-2Z"/><path class="cls-3" d="M450.29,85.87H428.73V81.63h-2.4V47.71h2.4V43.48h21.56V52H435.91v8.48h7.19v8.48h-7.19v8.48h14.38Z"/><path class="cls-1" d="M451.71,87.28h-24.4V83h-2.4V46.3h2.4V42.06h24.4V53.37H437.33V59h7.19V70.33h-7.19V76h14.38Zm-21.57-2.83h18.73V78.81H434.5V67.49h7.19V61.85H434.5V50.54h14.37V44.89H430.14v4.24h-2.39V80.21h2.39Z"/><rect class="cls-1" x="147.03" y="104.04" width="47.57" height="44.4"/><path class="cls-2" d="M153.37,110.38h34.92v31.71H153.37Z"/><rect class="cls-1" x="169.23" y="116.72" width="3.17" height="19.03"/><rect class="cls-1" x="178.74" y="116.72" width="3.17" height="19.03"/><rect class="cls-1" x="159.71" y="116.72" width="3.17" height="19.03"/><rect class="cls-1" x="189.03" y="104.04" width="47.57" height="44.4"/><path class="cls-2" d="M195.37,110.38h34.92v31.71H195.37Z"/><rect class="cls-1" x="211.23" y="116.72" width="3.17" height="19.03"/><rect class="cls-1" x="220.74" y="116.72" width="3.17" height="19.03"/><rect class="cls-1" x="201.71" y="116.72" width="3.17" height="19.03"/><rect class="cls-1" x="245.57" y="104.04" width="47.57" height="44.4"/><path class="cls-2" d="M251.91,110.38h34.92v31.71H251.91Z"/><rect class="cls-1" x="267.77" y="116.72" width="3.17" height="19.03"/><rect class="cls-1" x="277.28" y="116.72" width="3.17" height="19.03"/><rect class="cls-1" x="258.25" y="116.72" width="3.17" height="19.03"/><rect class="cls-1" x="287.57" y="104.04" width="47.57" height="44.4"/><path class="cls-2" d="M293.91,110.38h34.92v31.71H293.91Z"/><rect class="cls-1" x="309.77" y="116.72" width="3.17" height="19.03"/><rect class="cls-1" x="319.28" y="116.72" width="3.17" height="19.03"/><rect class="cls-1" x="300.25" y="116.72" width="3.17" height="19.03"/><rect class="cls-1" x="404.14" y="104.04" width="47.57" height="44.4"/><path class="cls-2" d="M410.48,110.38H445.4v31.71H410.48Z"/><rect class="cls-1" x="426.34" y="116.72" width="3.17" height="19.03"/><rect class="cls-1" x="435.85" y="116.72" width="3.17" height="19.03"/><rect class="cls-1" x="416.82" y="116.72" width="3.17" height="19.03"/><path class="cls-2" d="M347.12,115.54l-6.47,31,8.9,1.86h26.38l5.38-25.77Zm4.13,26.78-3.1-.65L352,123l3.11.65Zm9.32,1.94-3.1-.64L361.35,125l3.11.64Zm6.21,1.3,3.88-18.63,3.11.65-3.89,18.63Z"/><rect class="cls-1" x="351.45" y="133.04" width="19.03" height="3.17" transform="translate(155.45 460.48) rotate(-78.21)"/><rect class="cls-1" x="360.76" y="134.98" width="19.03" height="3.17" transform="matrix(0.2, -0.98, 0.98, 0.2, 160.95, 471.14)"/><rect class="cls-1" x="342.13" y="131.1" width="19.03" height="3.17" transform="translate(149.93 449.81) rotate(-78.21)"/><path class="cls-1" d="M342.21,108l-8.43,40.4h48.6l6.4-30.68Zm35.05,34.05H341.58l5.54-26.55,34.19,7.13Z"/></svg>