<svg id="Layer_1" data-name="Layer 1" xmlns="http://www.w3.org/2000/svg" viewBox="0 0 480.27 167.77"><defs><style>.cls-1{fill:none;}.cls-2{fill:#00a2dd;}.cls-3{fill:#0075bc;}</style></defs><title>stonehenge_with_text</title><polygon class="cls-1" points="378.39 138.92 382.44 119.5 378.39 138.92 378.39 138.92"/><polygon class="cls-2" points="342.71 138.92 349.2 138.92 349.28 138.5 353.17 119.87 356.27 120.52 352.43 138.92 358.92 138.92 362.48 121.81 365.59 122.46 362.15 138.92 368.63 138.92 370.42 130.37 371.79 123.76 374.9 124.41 371.87 138.92 378.39 138.92 382.44 119.5 348.25 112.37 342.71 138.92"/><path class="cls-3" d="M343.34,104.87l-7.07,33.91V100.87H246.7v44.4H383.51l6.4-30.69Zm35.05,34h-6.52l3-14.52-3.11-.64-1.38,6.61-1.78,8.55h-6.48l3.44-16.46-3.11-.65-3.56,17.11h-6.49l3.84-18.4-3.1-.65-3.89,18.63-.08.42h-6.49l5.54-26.55,34.19,7.13Z"/><polygon class="cls-3" points="195.73 100.87 190.16 100.87 148.16 100.87 148.16 145.27 190.16 145.27 195.73 145.27 237.73 145.27 237.73 100.87 195.73 100.87"/><polygon class="cls-3" points="120.55 62.82 120.55 24.76 79.32 24.76 72.98 24.76 31.75 24.76 31.75 62.82 24.71 62.82 24.71 100.87 24.71 107.22 24.71 145.27 72.28 145.27 72.28 107.22 72.28 100.87 72.28 69.16 72.98 69.16 79.32 69.16 80.02 69.16 80.02 100.87 80.02 107.22 80.02 145.27 127.59 145.27 127.59 107.22 127.59 100.87 127.59 62.82 120.55 62.82"/><path class="cls-2" d="M38.1,31.1H73V62.82H38.1Z"/><rect class="cls-3" x="53.95" y="37.44" width="3.17" height="19.03"/><rect class="cls-3" x="63.47" y="37.44" width="3.17" height="19.03"/><rect class="cls-3" x="44.44" y="37.44" width="3.17" height="19.03"/><path class="cls-2" d="M79.33,31.1h34.88V62.82H79.33Z"/><rect class="cls-3" x="95.18" y="37.44" width="3.17" height="19.03"/><rect class="cls-3" x="104.7" y="37.44" width="3.17" height="19.03"/><rect class="cls-3" x="85.67" y="37.44" width="3.17" height="19.03"/><path class="cls-2" d="M31.05,69.16H65.94v31.71H31.05Z"/><rect class="cls-3" x="46.91" y="75.5" width="3.17" height="19.03"/><rect class="cls-3" x="56.42" y="75.5" width="3.17" height="19.03"/><rect class="cls-3" x="37.39" y="75.5" width="3.17" height="19.03"/><path class="cls-2" d="M31.05,107.22H65.94v31.72H31.05Z"/><rect class="cls-3" x="46.91" y="113.56" width="3.17" height="19.03"/><rect class="cls-3" x="56.42" y="113.56" width="3.17" height="19.03"/><rect class="cls-3" x="37.39" y="113.56" width="3.17" height="19.03"/><path class="cls-2" d="M86.36,69.16h34.92v31.71H86.36Z"/><rect class="cls-3" x="102.22" y="75.5" width="3.17" height="19.03"/><rect class="cls-3" x="111.73" y="75.5" width="3.17" height="19.03"/><rect class="cls-3" x="92.7" y="75.5" width="3.17" height="19.03"/><path class="cls-2" d="M86.36,107.22h34.92v31.72H86.36Z"/><rect class="cls-3" x="102.22" y="113.56" width="3.17" height="19.03"/><rect class="cls-3" x="111.73" y="113.56" width="3.17" height="19.03"/><rect class="cls-3" x="92.7" y="113.56" width="3.17" height="19.03"/><path class="cls-3" d="M179.75,84.11H148.16V70h19.17V61.5h-16V55.85h-3.2V30.41h3.2V24.76h31.58V38.9H163.77v8.46h16V53h3.19V78.46h-3.19ZM151,81.28h25.91V75.62h3.2V55.85h-3.2V50.2h-16V36.06h19.17V27.59H154.19v5.65H151V53h3.19v5.65h16V72.81H151Z"/><path class="cls-3" d="M206.07,84.11H193.65V50.2h-7.19V38.89h26.8V50.2h-7.19Zm-9.58-2.83h6.74V47.36h7.19V41.72H189.3v5.64h7.19Z"/><path class="cls-3" d="M239.61,84.11h-22V79.87h-2.4V43.13h2.4V38.89h22v4.24H242V79.87h-2.4Zm-19.17-2.83h16.33V77h2.4V46h-2.4V41.72H220.44V46h-2.39V77h2.39Zm12-5.65H224.8V47.36h7.62Zm-4.79-2.83h2V50.2h-2Z"/><path class="cls-3" d="M270.76,84.11H258.34V50.2h-2V84.11H244V38.89h24.4v4.24h2.4Zm-9.59-2.83h6.75V46h-2.4V41.72H246.8V81.28h6.75V47.36h7.62Z"/><path class="cls-3" d="M299.5,84.11H275.11V79.87h-2.4V43.13h2.4V38.89H299.5V50.2H285.13v5.64h7.19V67.15h-7.19V72.8H299.5Zm-21.56-2.83h18.73V75.63H282.3V64.32h7.18V58.68H282.3V47.36h14.37V41.72H277.94V46h-2.39V77h2.39Z"/><path class="cls-3" d="M336.27,84.11H320.66V61.5h-3.55V84.11H301.5V24.76h15.61v22.6h3.55V24.76h15.61ZM323.5,81.28h9.94V27.59H323.5V50.2h-9.23V27.59h-9.94V81.28h9.94V58.67h9.23Z"/><path class="cls-3" d="M366.59,84.11h-24.4V79.87H339.8V43.13h2.39V38.89h24.4V50.2H352.21v5.64h7.19V67.15h-7.19V72.8h14.38ZM345,81.28h18.72V75.63H349.38V64.32h7.19V58.68h-7.19V47.36h14.37V41.72H345V46h-2.4V77H345Z"/><path class="cls-3" d="M395.34,84.11H382.92V50.2h-2V84.11H368.55V38.89h24.39v4.24h2.4Zm-9.59-2.83h6.75V46h-2.39V41.72H371.38V81.28h6.75V47.36h7.62Z"/><path class="cls-3" d="M424.09,84.11h-24.4V79.87H397.3V43.13h2.39V38.89h24.4V50.2H409.71v5.64h14.38Zm-21.56-2.83h18.72V58.68h-9.14v5.64h2.39V75.63h-7.62V47.36h14.37V41.72H402.53V46h-2.4V77h2.4Zm7.18-8.48h2V67.15h-2Z"/><path class="cls-3" d="M452.84,84.11h-24.4V79.87h-2.39V43.13h2.39V38.89h24.4V50.2H438.46v5.64h7.19V67.15h-7.19V72.8h14.38Zm-21.56-2.83H450V75.63H435.63V64.32h7.19V58.68h-7.19V47.36H450V41.72H431.28V46h-2.4V77h2.4Z"/><path class="cls-2" d="M154.5,107.21h34.92v31.71H154.5Z"/><rect class="cls-3" x="170.36" y="113.55" width="3.17" height="19.03"/><rect class="cls-3" x="179.87" y="113.55" width="3.17" height="19.03"/><rect class="cls-3" x="160.84" y="113.55" width="3.17" height="19.03"/><path class="cls-2" d="M196.5,107.21h34.92v31.71H196.5Z"/><rect class="cls-3" x="212.36" y="113.55" width="3.17" height="19.03"/><rect class="cls-3" x="221.87" y="113.55" width="3.17" height="19.03"/><rect class="cls-3" x="202.84" y="113.55" width="3.17" height="19.03"/><path class="cls-2" d="M253,107.21H288v31.71H253Z"/><rect class="cls-3" x="268.9" y="113.55" width="3.17" height="19.03"/><rect class="cls-3" x="278.41" y="113.55" width="3.17" height="19.03"/><rect class="cls-3" x="259.38" y="113.55" width="3.17" height="19.03"/><path class="cls-2" d="M295,107.21H330v31.71H295Z"/><rect class="cls-3" x="310.9" y="113.55" width="3.17" height="19.03"/><rect class="cls-3" x="320.41" y="113.55" width="3.17" height="19.03"/><rect class="cls-3" x="301.38" y="113.55" width="3.17" height="19.03"/><rect class="cls-3" x="405.27" y="100.87" width="47.57" height="44.4"/><path class="cls-2" d="M411.61,107.21h34.92v31.71H411.61Z"/><rect class="cls-3" x="427.47" y="113.55" width="3.17" height="19.03"/><rect class="cls-3" x="436.98" y="113.55" width="3.17" height="19.03"/><rect class="cls-3" x="417.95" y="113.55" width="3.17" height="19.03"/></svg>