<svg id="Layer_1" data-name="Layer 1" xmlns="http://www.w3.org/2000/svg" viewBox="0 0 890 181.03"><defs><style>.cls-1{fill:#0075bc;}.cls-2{fill:#00a2dd;}</style></defs><title>Stonehenge - wide</title><rect class="cls-1" x="324.8" y="27.93" width="47.57" height="44.4"/><path class="cls-2" d="M331.15,34.27H366V66H331.15Z"/><rect class="cls-1" x="347" y="40.61" width="3.17" height="19.03"/><rect class="cls-1" x="356.52" y="40.61" width="3.17" height="19.03"/><rect class="cls-1" x="337.49" y="40.61" width="3.17" height="19.03"/><rect class="cls-1" x="366.03" y="27.93" width="47.57" height="44.4"/><path class="cls-2" d="M372.38,34.27h34.88V66H372.38Z"/><rect class="cls-1" x="388.23" y="40.61" width="3.17" height="19.03"/><rect class="cls-1" x="397.75" y="40.61" width="3.17" height="19.03"/><rect class="cls-1" x="378.72" y="40.61" width="3.17" height="19.03"/><rect class="cls-1" x="407.26" y="27.93" width="47.57" height="44.4"/><path class="cls-2" d="M413.6,34.27h34.89V66H413.6Z"/><rect class="cls-1" x="429.46" y="40.61" width="3.17" height="19.03"/><rect class="cls-1" x="438.98" y="40.61" width="3.17" height="19.03"/><rect class="cls-1" x="419.95" y="40.61" width="3.17" height="19.03"/><rect class="cls-1" x="338.38" y="65.99" width="47.57" height="44.4"/><path class="cls-2" d="M344.72,72.33h34.89V104H344.72Z"/><rect class="cls-1" x="360.58" y="78.67" width="3.17" height="19.03"/><rect class="cls-1" x="370.09" y="78.67" width="3.17" height="19.03"/><rect class="cls-1" x="351.06" y="78.67" width="3.17" height="19.03"/><rect class="cls-1" x="393.69" y="65.99" width="47.57" height="44.4"/><path class="cls-2" d="M400,72.33H435V104H400Z"/><rect class="cls-1" x="415.89" y="78.67" width="3.17" height="19.03"/><rect class="cls-1" x="425.4" y="78.67" width="3.17" height="19.03"/><rect class="cls-1" x="406.37" y="78.67" width="3.17" height="19.03"/><rect class="cls-1" x="338.38" y="104.04" width="47.57" height="44.4"/><path class="cls-2" d="M344.72,110.39h34.89v31.72H344.72Z"/><rect class="cls-1" x="360.58" y="116.73" width="3.17" height="19.03"/><rect class="cls-1" x="370.09" y="116.73" width="3.17" height="19.03"/><rect class="cls-1" x="351.06" y="116.73" width="3.17" height="19.03"/><rect class="cls-1" x="393.69" y="104.04" width="47.57" height="44.4"/><path class="cls-2" d="M400,110.39H435v31.72H400Z"/><rect class="cls-1" x="415.89" y="116.73" width="3.17" height="19.03"/><rect class="cls-1" x="425.4" y="116.73" width="3.17" height="19.03"/><rect class="cls-1" x="406.37" y="116.73" width="3.17" height="19.03"/><rect class="cls-1" x="449" y="27.93" width="47.57" height="44.4"/><path class="cls-2" d="M455.35,34.27h34.88V66H455.35Z"/><rect class="cls-1" x="471.2" y="40.61" width="3.17" height="19.03"/><rect class="cls-1" x="480.72" y="40.61" width="3.17" height="19.03"/><rect class="cls-1" x="461.69" y="40.61" width="3.17" height="19.03"/><rect class="cls-1" x="490.23" y="27.93" width="47.57" height="44.4"/><path class="cls-2" d="M496.58,34.27h34.88V66H496.58Z"/><rect class="cls-1" x="512.43" y="40.61" width="3.17" height="19.03"/><rect class="cls-1" x="521.95" y="40.61" width="3.17" height="19.03"/><rect class="cls-1" x="502.92" y="40.61" width="3.17" height="19.03"/><rect class="cls-1" x="531.46" y="27.93" width="47.57" height="44.4"/><path class="cls-2" d="M537.8,34.27h34.89V66H537.8Z"/><rect class="cls-1" x="553.66" y="40.61" width="3.17" height="19.03"/><rect class="cls-1" x="563.18" y="40.61" width="3.17" height="19.03"/><rect class="cls-1" x="544.15" y="40.61" width="3.17" height="19.03"/><rect class="cls-1" x="462.58" y="65.99" width="47.57" height="44.4"/><path class="cls-2" d="M468.92,72.33h34.89V104H468.92Z"/><rect class="cls-1" x="484.78" y="78.67" width="3.17" height="19.03"/><rect class="cls-1" x="494.29" y="78.67" width="3.17" height="19.03"/><rect class="cls-1" x="475.26" y="78.67" width="3.17" height="19.03"/><rect class="cls-1" x="517.89" y="65.99" width="47.57" height="44.4"/><path class="cls-2" d="M524.23,72.33h34.92V104H524.23Z"/><rect class="cls-1" x="540.09" y="78.67" width="3.17" height="19.03"/><rect class="cls-1" x="549.6" y="78.67" width="3.17" height="19.03"/><rect class="cls-1" x="530.57" y="78.67" width="3.17" height="19.03"/><rect class="cls-1" x="462.58" y="104.04" width="47.57" height="44.4"/><path class="cls-2" d="M468.92,110.39h34.89v31.72H468.92Z"/><rect class="cls-1" x="484.78" y="116.73" width="3.17" height="19.03"/><rect class="cls-1" x="494.29" y="116.73" width="3.17" height="19.03"/><rect class="cls-1" x="475.26" y="116.73" width="3.17" height="19.03"/><rect class="cls-1" x="517.89" y="104.04" width="47.57" height="44.4"/><path class="cls-2" d="M524.23,110.39h34.92v31.72H524.23Z"/><rect class="cls-1" x="540.09" y="116.73" width="3.17" height="19.03"/><rect class="cls-1" x="549.6" y="116.73" width="3.17" height="19.03"/><rect class="cls-1" x="530.57" y="116.73" width="3.17" height="19.03"/><rect class="cls-1" x="30.62" y="27.93" width="47.57" height="44.4"/><path class="cls-2" d="M37,34.27H71.85V66H37Z"/><rect class="cls-1" x="52.82" y="40.61" width="3.17" height="19.03"/><rect class="cls-1" x="62.34" y="40.61" width="3.17" height="19.03"/><rect class="cls-1" x="43.31" y="40.61" width="3.17" height="19.03"/><rect class="cls-1" x="71.85" y="27.93" width="47.57" height="44.4"/><path class="cls-2" d="M78.2,34.27h34.88V66H78.2Z"/><rect class="cls-1" x="94.05" y="40.61" width="3.17" height="19.03"/><rect class="cls-1" x="103.57" y="40.61" width="3.17" height="19.03"/><rect class="cls-1" x="84.54" y="40.61" width="3.17" height="19.03"/><rect class="cls-1" x="23.58" y="65.99" width="47.57" height="44.4"/><path class="cls-2" d="M29.92,72.33H64.81V104H29.92Z"/><rect class="cls-1" x="45.78" y="78.67" width="3.17" height="19.03"/><rect class="cls-1" x="55.29" y="78.67" width="3.17" height="19.03"/><rect class="cls-1" x="36.26" y="78.67" width="3.17" height="19.03"/><rect class="cls-1" x="23.58" y="104.04" width="47.57" height="44.4"/><path class="cls-2" d="M29.92,110.39H64.81v31.72H29.92Z"/><rect class="cls-1" x="45.78" y="116.73" width="3.17" height="19.03"/><rect class="cls-1" x="55.29" y="116.73" width="3.17" height="19.03"/><rect class="cls-1" x="36.26" y="116.73" width="3.17" height="19.03"/><rect class="cls-1" x="78.89" y="65.99" width="47.57" height="44.4"/><path class="cls-2" d="M85.23,72.33h34.92V104H85.23Z"/><rect class="cls-1" x="101.09" y="78.67" width="3.17" height="19.03"/><rect class="cls-1" x="110.6" y="78.67" width="3.17" height="19.03"/><rect class="cls-1" x="91.57" y="78.67" width="3.17" height="19.03"/><rect class="cls-1" x="78.89" y="104.04" width="47.57" height="44.4"/><path class="cls-2" d="M85.23,110.39h34.92v31.72H85.23Z"/><rect class="cls-1" x="101.09" y="116.73" width="3.17" height="19.03"/><rect class="cls-1" x="110.6" y="116.73" width="3.17" height="19.03"/><rect class="cls-1" x="91.57" y="116.73" width="3.17" height="19.03"/><rect class="cls-1" x="153.19" y="27.93" width="47.57" height="44.4"/><path class="cls-2" d="M159.54,34.27h34.88V66H159.54Z"/><rect class="cls-1" x="175.39" y="40.61" width="3.17" height="19.03"/><rect class="cls-1" x="184.91" y="40.61" width="3.17" height="19.03"/><rect class="cls-1" x="165.88" y="40.61" width="3.17" height="19.03"/><rect class="cls-1" x="194.42" y="27.93" width="47.57" height="44.4"/><path class="cls-2" d="M200.77,34.27h34.88V66H200.77Z"/><rect class="cls-1" x="216.62" y="40.61" width="3.17" height="19.03"/><rect class="cls-1" x="226.14" y="40.61" width="3.17" height="19.03"/><rect class="cls-1" x="207.11" y="40.61" width="3.17" height="19.03"/><rect class="cls-1" x="146.15" y="65.99" width="47.57" height="44.4"/><path class="cls-2" d="M152.49,72.33h34.89V104H152.49Z"/><rect class="cls-1" x="168.35" y="78.67" width="3.17" height="19.03"/><rect class="cls-1" x="177.86" y="78.67" width="3.17" height="19.03"/><rect class="cls-1" x="158.83" y="78.67" width="3.17" height="19.03"/><rect class="cls-1" x="146.15" y="104.04" width="47.57" height="44.4"/><path class="cls-2" d="M152.49,110.39h34.89v31.72H152.49Z"/><rect class="cls-1" x="168.35" y="116.73" width="3.17" height="19.03"/><rect class="cls-1" x="177.86" y="116.73" width="3.17" height="19.03"/><rect class="cls-1" x="158.83" y="116.73" width="3.17" height="19.03"/><rect class="cls-1" x="201.46" y="65.99" width="47.57" height="44.4"/><path class="cls-2" d="M207.8,72.33h34.92V104H207.8Z"/><rect class="cls-1" x="223.66" y="78.67" width="3.17" height="19.03"/><rect class="cls-1" x="233.17" y="78.67" width="3.17" height="19.03"/><rect class="cls-1" x="214.14" y="78.67" width="3.17" height="19.03"/><rect class="cls-1" x="201.46" y="104.04" width="47.57" height="44.4"/><path class="cls-2" d="M207.8,110.39h34.92v31.72H207.8Z"/><rect class="cls-1" x="223.66" y="116.73" width="3.17" height="19.03"/><rect class="cls-1" x="233.17" y="116.73" width="3.17" height="19.03"/><rect class="cls-1" x="214.14" y="116.73" width="3.17" height="19.03"/><rect class="cls-1" x="653.64" y="27.93" width="47.57" height="44.4"/><path class="cls-2" d="M660,34.27h34.88V66H660Z"/><rect class="cls-1" x="675.84" y="40.61" width="3.17" height="19.03"/><rect class="cls-1" x="685.36" y="40.61" width="3.17" height="19.03"/><rect class="cls-1" x="666.33" y="40.61" width="3.17" height="19.03"/><rect class="cls-1" x="694.87" y="27.93" width="47.57" height="44.4"/><path class="cls-2" d="M701.22,34.27H736.1V66H701.22Z"/><rect class="cls-1" x="717.07" y="40.61" width="3.17" height="19.03"/><rect class="cls-1" x="726.59" y="40.61" width="3.17" height="19.03"/><rect class="cls-1" x="707.56" y="40.61" width="3.17" height="19.03"/><rect class="cls-1" x="646.6" y="65.99" width="47.57" height="44.4"/><path class="cls-2" d="M652.94,72.33h34.89V104H652.94Z"/><rect class="cls-1" x="668.8" y="78.67" width="3.17" height="19.03"/><rect class="cls-1" x="678.31" y="78.67" width="3.17" height="19.03"/><rect class="cls-1" x="659.28" y="78.67" width="3.17" height="19.03"/><rect class="cls-1" x="646.6" y="104.04" width="47.57" height="44.4"/><path class="cls-2" d="M652.94,110.39h34.89v31.72H652.94Z"/><rect class="cls-1" x="668.8" y="116.73" width="3.17" height="19.03"/><rect class="cls-1" x="678.31" y="116.73" width="3.17" height="19.03"/><rect class="cls-1" x="659.28" y="116.73" width="3.17" height="19.03"/><rect class="cls-1" x="701.91" y="65.99" width="47.57" height="44.4"/><path class="cls-2" d="M708.25,72.33h34.92V104H708.25Z"/><rect class="cls-1" x="724.11" y="78.67" width="3.17" height="19.03"/><rect class="cls-1" x="733.62" y="78.67" width="3.17" height="19.03"/><rect class="cls-1" x="714.59" y="78.67" width="3.17" height="19.03"/><rect class="cls-1" x="701.91" y="104.04" width="47.57" height="44.4"/><path class="cls-2" d="M708.25,110.39h34.92v31.72H708.25Z"/><rect class="cls-1" x="724.11" y="116.73" width="3.17" height="19.03"/><rect class="cls-1" x="733.62" y="116.73" width="3.17" height="19.03"/><rect class="cls-1" x="714.59" y="116.73" width="3.17" height="19.03"/><rect class="cls-1" x="269.92" y="65.99" width="47.57" height="44.4"/><path class="cls-2" d="M276.26,72.33h34.92V104H276.26Z"/><rect class="cls-1" x="292.12" y="78.67" width="3.17" height="19.03"/><rect class="cls-1" x="301.63" y="78.67" width="3.17" height="19.03"/><rect class="cls-1" x="282.6" y="78.67" width="3.17" height="19.03"/><rect class="cls-1" x="269.92" y="104.04" width="47.57" height="44.4"/><path class="cls-2" d="M276.26,110.39h34.92v31.72H276.26Z"/><rect class="cls-1" x="292.12" y="116.73" width="3.17" height="19.03"/><rect class="cls-1" x="301.63" y="116.73" width="3.17" height="19.03"/><rect class="cls-1" x="282.6" y="116.73" width="3.17" height="19.03"/><rect class="cls-1" x="589.03" y="65.99" width="47.57" height="44.4"/><path class="cls-2" d="M595.37,72.33h34.92V104H595.37Z"/><rect class="cls-1" x="611.23" y="78.67" width="3.17" height="19.03"/><rect class="cls-1" x="620.74" y="78.67" width="3.17" height="19.03"/><rect class="cls-1" x="601.71" y="78.67" width="3.17" height="19.03"/><rect class="cls-1" x="589.03" y="104.04" width="47.57" height="44.4"/><path class="cls-2" d="M595.37,110.39h34.92v31.72H595.37Z"/><rect class="cls-1" x="611.23" y="116.73" width="3.17" height="19.03"/><rect class="cls-1" x="620.74" y="116.73" width="3.17" height="19.03"/><rect class="cls-1" x="601.71" y="116.73" width="3.17" height="19.03"/><rect class="cls-1" x="759.48" y="65.99" width="47.57" height="44.4"/><path class="cls-2" d="M765.82,72.33h34.92V104H765.82Z"/><rect class="cls-1" x="781.68" y="78.67" width="3.17" height="19.03"/><rect class="cls-1" x="791.19" y="78.67" width="3.17" height="19.03"/><rect class="cls-1" x="772.16" y="78.67" width="3.17" height="19.03"/><rect class="cls-1" x="759.48" y="104.04" width="47.57" height="44.4"/><path class="cls-2" d="M765.82,110.39h34.92v31.72H765.82Z"/><rect class="cls-1" x="781.68" y="116.73" width="3.17" height="19.03"/><rect class="cls-1" x="791.19" y="116.73" width="3.17" height="19.03"/><rect class="cls-1" x="772.16" y="116.73" width="3.17" height="19.03"/><rect class="cls-1" x="817.05" y="65.99" width="47.57" height="44.4"/><path class="cls-2" d="M823.39,72.33h34.92V104H823.39Z"/><rect class="cls-1" x="839.25" y="78.67" width="3.17" height="19.03"/><rect class="cls-1" x="848.76" y="78.67" width="3.17" height="19.03"/><rect class="cls-1" x="829.73" y="78.67" width="3.17" height="19.03"/><rect class="cls-1" x="817.05" y="104.04" width="47.57" height="44.4"/><path class="cls-2" d="M823.39,110.39h34.92v31.72H823.39Z"/><rect class="cls-1" x="839.25" y="116.73" width="3.17" height="19.03"/><rect class="cls-1" x="848.76" y="116.73" width="3.17" height="19.03"/><rect class="cls-1" x="829.73" y="116.73" width="3.17" height="19.03"/></svg>